<svg width="33" height="34" viewBox="0 0 33 34" fill="none" xmlns="http://www.w3.org/2000/svg">
<path d="M16.3177 3.8793C20.4993 3.8793 21.0693 3.8793 22.78 3.8793C24.3005 3.8793 25.0609 4.26842 25.6312 4.46298C26.3913 4.85207 26.9616 5.04663 27.5319 5.63031C28.1019 6.21399 28.4821 6.79767 28.6722 7.57588C28.8623 8.15956 29.0524 8.9378 29.2425 10.4942C29.2425 12.2453 29.2425 12.6342 29.2425 17.1092C29.2425 21.5841 29.2425 21.973 29.2425 23.7241C29.2425 25.2805 28.8623 26.0588 28.6722 26.6426C28.292 27.4207 28.1019 28.0044 27.5319 28.5882C26.9616 29.1717 26.3913 29.5608 25.6312 29.7554C25.0609 29.95 24.3005 30.1446 22.78 30.3392C21.0693 30.3392 20.6894 30.3392 16.3177 30.3392C11.946 30.3392 11.5661 30.3392 9.85537 30.3392C8.33482 30.3392 7.57454 29.95 7.00433 29.7554C6.24407 29.3663 5.67386 29.1717 5.10364 28.5882C4.53343 28.0044 4.15329 27.4207 3.96324 26.6426C3.77317 26.0588 3.5831 25.2805 3.39303 23.7241C3.39303 21.973 3.39303 21.5841 3.39303 17.1092C3.39303 12.6342 3.39303 12.2453 3.39303 10.4942C3.39303 8.9378 3.77317 8.15956 3.96324 7.57588C4.34336 6.79767 4.53343 6.21399 5.10364 5.63031C5.67386 5.04663 6.24407 4.65751 7.00433 4.46298C7.57454 4.26842 8.33482 4.07386 9.85537 3.8793C11.5661 3.8793 12.1361 3.8793 16.3177 3.8793ZM16.3177 0.960938C11.946 0.960938 11.5661 0.960938 9.85537 0.960938C8.14475 0.960938 7.00433 1.35006 6.054 1.73918C5.10364 2.12829 4.15329 2.71195 3.20296 3.68474C2.25261 4.65752 1.87246 5.43575 1.30228 6.60311C0.922134 7.57588 0.732063 8.74324 0.541992 10.4942C0.541992 12.2453 0.541992 12.8288 0.541992 17.1092C0.541992 21.5841 0.541992 21.973 0.541992 23.7241C0.541992 25.4751 0.922134 26.6426 1.30228 27.6152C1.68242 28.5882 2.25261 29.5608 3.20296 30.5338C4.15329 31.5064 4.91357 31.8956 6.054 32.4791C7.00433 32.8683 8.14475 33.0629 9.85537 33.2574C11.5661 33.2574 12.1361 33.2574 16.3177 33.2574C20.4993 33.2574 21.0693 33.2574 22.78 33.2574C24.4906 33.2574 25.6312 32.8683 26.5814 32.4791C27.5319 32.0902 28.4821 31.5064 29.4326 30.5338C30.3828 29.5608 30.763 28.7828 31.333 27.6152C31.7132 26.6426 31.9033 25.4751 32.0934 23.7241C32.0934 21.973 32.0934 21.3896 32.0934 17.1092C32.0934 12.8288 32.0934 12.2453 32.0934 10.4942C32.0934 8.74324 31.7132 7.57588 31.333 6.60311C30.9531 5.63031 30.3828 4.65752 29.4326 3.68474C28.4821 2.71195 27.722 2.32283 26.5814 1.73918C25.6312 1.35006 24.4906 1.1555 22.78 0.960938C21.0693 0.960938 20.6894 0.960938 16.3177 0.960938Z" fill="#906BF9"/>
<path d="M16.3131 8.74316C11.7515 8.74316 8.14014 12.4398 8.14014 17.1091C8.14014 21.7784 11.7515 25.475 16.3131 25.475C20.8746 25.475 24.486 21.7784 24.486 17.1091C24.486 12.4398 20.8746 8.74316 16.3131 8.74316ZM16.3131 22.5567C13.4622 22.5567 10.9911 20.222 10.9911 17.1091C10.9911 14.1909 13.2721 11.6615 16.3131 11.6615C19.164 11.6615 21.635 13.9963 21.635 17.1091C21.635 20.0274 19.164 22.5567 16.3131 22.5567Z" fill="#906BF9"/>
<path d="M24.6785 10.4937C25.7284 10.4937 26.5793 9.62261 26.5793 8.54811C26.5793 7.4736 25.7284 6.60254 24.6785 6.60254C23.6289 6.60254 22.7778 7.4736 22.7778 8.54811C22.7778 9.62261 23.6289 10.4937 24.6785 10.4937Z" fill="#906BF9"/>
</svg>
