<svg width="64" height="28" viewBox="0 0 64 28" fill="none" xmlns="http://www.w3.org/2000/svg">
<path d="M1.53409 23V12.0909H3.15341V13.7955H3.29545C3.52273 13.2131 3.88968 12.7609 4.39631 12.4389C4.90294 12.1122 5.51136 11.9489 6.22159 11.9489C6.94129 11.9489 7.54025 12.1122 8.01847 12.4389C8.50142 12.7609 8.87784 13.2131 9.14773 13.7955H9.26136C9.54072 13.232 9.95975 12.7846 10.5185 12.4531C11.0772 12.117 11.7472 11.9489 12.5284 11.9489C13.5038 11.9489 14.3016 12.2543 14.9219 12.8651C15.5421 13.4711 15.8523 14.4157 15.8523 15.6989V23H14.1761V15.6989C14.1761 14.8939 13.956 14.3187 13.5156 13.973C13.0753 13.6274 12.5568 13.4545 11.9602 13.4545C11.1932 13.4545 10.599 13.6866 10.1776 14.1506C9.75616 14.6098 9.54545 15.1922 9.54545 15.8977V23H7.84091V15.5284C7.84091 14.9081 7.63968 14.4086 7.23722 14.0298C6.83475 13.6463 6.31629 13.4545 5.68182 13.4545C5.24621 13.4545 4.83902 13.5705 4.46023 13.8026C4.08617 14.0346 3.78314 14.3565 3.55114 14.7685C3.32386 15.1757 3.21023 15.6468 3.21023 16.1818V23H1.53409ZM21.9908 23.2273C20.9396 23.2273 20.0329 22.9953 19.2706 22.5312C18.513 22.0625 17.9283 21.4091 17.5163 20.571C17.1091 19.7282 16.9055 18.7481 16.9055 17.6307C16.9055 16.5133 17.1091 15.5284 17.5163 14.6761C17.9283 13.8191 18.5012 13.1515 19.2351 12.6733C19.9737 12.1903 20.8355 11.9489 21.8203 11.9489C22.3885 11.9489 22.9496 12.0436 23.5036 12.233C24.0575 12.4223 24.5618 12.7301 25.0163 13.1562C25.4709 13.5777 25.8331 14.1364 26.103 14.8324C26.3729 15.5284 26.5078 16.3854 26.5078 17.4034V18.1136H18.0987V16.6648H24.8033C24.8033 16.0492 24.6802 15.5 24.4339 15.017C24.1925 14.5341 23.8468 14.1529 23.397 13.8736C22.9519 13.5942 22.4264 13.4545 21.8203 13.4545C21.1527 13.4545 20.575 13.6203 20.0874 13.9517C19.6044 14.2784 19.2327 14.7045 18.9723 15.2301C18.7119 15.7557 18.5817 16.3191 18.5817 16.9205V17.8864C18.5817 18.7102 18.7237 19.4086 19.0078 19.9815C19.2966 20.5497 19.6967 20.983 20.2081 21.2812C20.7195 21.5748 21.3137 21.7216 21.9908 21.7216C22.4311 21.7216 22.8288 21.66 23.1839 21.5369C23.5438 21.4091 23.8539 21.2197 24.1143 20.9688C24.3748 20.7131 24.576 20.3958 24.718 20.017L26.3374 20.4716C26.1669 21.0208 25.8804 21.5038 25.478 21.9205C25.0755 22.3324 24.5784 22.6544 23.9865 22.8864C23.3946 23.1136 22.7294 23.2273 21.9908 23.2273ZM31.6768 23.2273C30.7678 23.2273 29.9652 22.9976 29.2692 22.5384C28.5732 22.0743 28.0286 21.4209 27.6357 20.5781C27.2427 19.7306 27.0462 18.7292 27.0462 17.5739C27.0462 16.428 27.2427 15.4337 27.6357 14.5909C28.0286 13.7481 28.5755 13.0971 29.2763 12.6378C29.977 12.1785 30.7867 11.9489 31.7053 11.9489C32.4155 11.9489 32.9766 12.0672 33.3885 12.304C33.8052 12.536 34.1224 12.8011 34.3402 13.0994C34.5627 13.393 34.7356 13.6345 34.8587 13.8239H35.0007V8.45455H36.6768V23H35.0575V21.3239H34.8587C34.7356 21.5227 34.5604 21.7737 34.3331 22.0767C34.1058 22.375 33.7815 22.6425 33.3601 22.8793C32.9387 23.1113 32.3776 23.2273 31.6768 23.2273ZM31.9041 21.7216C32.5765 21.7216 33.1446 21.5464 33.6087 21.196C34.0727 20.8409 34.4254 20.3509 34.6669 19.7259C34.9084 19.0961 35.0291 18.3693 35.0291 17.5455C35.0291 16.7311 34.9107 16.0185 34.674 15.4077C34.4373 14.7921 34.0869 14.3139 33.6229 13.973C33.1589 13.6274 32.5859 13.4545 31.9041 13.4545C31.1939 13.4545 30.602 13.6368 30.1286 14.0014C29.6598 14.3613 29.3071 14.8513 29.0703 15.4716C28.8383 16.0871 28.7223 16.7784 28.7223 17.5455C28.7223 18.322 28.8407 19.0275 29.0774 19.6619C29.3189 20.2917 29.674 20.7936 30.1428 21.1676C30.6162 21.5369 31.2034 21.7216 31.9041 21.7216Z" fill="#1A1C22"/>
<path d="M56.0866 0.818181H60.8295V17.9233C60.8295 19.7983 60.3864 21.4474 59.5 22.8707C58.6222 24.294 57.3864 25.4062 55.7926 26.2074C54.1989 27 52.3366 27.3963 50.206 27.3963C48.0668 27.3963 46.2003 27 44.6065 26.2074C43.0128 25.4062 41.777 24.294 40.8991 22.8707C40.0213 21.4474 39.5824 19.7983 39.5824 17.9233V0.818181H44.3253V17.527C44.3253 18.6179 44.5639 19.5895 45.0412 20.4418C45.527 21.294 46.2088 21.9631 47.0866 22.4489C47.9645 22.9261 49.0043 23.1648 50.206 23.1648C51.4077 23.1648 52.4474 22.9261 53.3253 22.4489C54.2116 21.9631 54.8935 21.294 55.3707 20.4418C55.848 19.5895 56.0866 18.6179 56.0866 17.527V0.818181Z" fill="#FF98BD" fill-opacity="0.97"/>
</svg>
