<svg width="92" height="85" viewBox="0 0 92 85" fill="none" xmlns="http://www.w3.org/2000/svg">
<path fill-rule="evenodd" clip-rule="evenodd" d="M46.277 0C71.3884 0 91.7454 19.0279 91.7454 42.4998C91.7454 65.972 71.3884 85 46.277 85C21.1656 85 0.808594 65.972 0.808594 42.4998C0.808594 19.0279 21.1656 0 46.277 0Z" fill="white"/>
<path fill-rule="evenodd" clip-rule="evenodd" d="M48.7917 64.234C50.2452 64.2477 50.5757 64.2067 48.8498 63.9256C48.1404 63.8244 47.4483 63.6954 46.7806 63.5413L46.8028 59.245C48.543 58.3091 50.0798 57.3105 51.3955 56.1749C52.4049 55.185 52.8175 54.7099 53.0371 53.2802C53.1436 51.5819 52.0952 50.1256 49.7605 49.3155C48.7716 48.9977 47.7985 48.676 46.8606 48.346L46.9051 39.9606C48.2219 39.319 49.5068 38.6778 50.811 37.9837C52.1892 37.2503 54.1967 36.2667 55.3019 35.2015C57.0083 33.5571 57.1634 31.5714 56.0959 30.2136C54.9176 28.7129 51.4838 27.9525 49.6639 27.6781C48.7913 27.5464 47.8993 27.4521 46.9714 27.387L47.0002 21.9845C47.9022 21.5627 48.5251 20.6695 48.5251 19.6355C48.5251 18.1954 47.317 17.0278 45.8261 17.0278C44.3357 17.0278 43.1276 18.1954 43.1276 19.6355C43.1276 20.6706 43.7512 21.5648 44.6554 21.9859L44.7052 27.2822C43.6145 27.2545 42.4627 27.2531 41.227 27.2664C40.4143 25.9314 38.542 25.9058 33.9109 27.5919L31.7871 27.765L33.899 28.038C36.3927 28.7335 40.1322 30.2283 41.3299 28.1351C42.4616 28.1974 43.5919 28.2738 44.7156 28.38L44.8121 38.6582C43.5635 39.1925 42.3385 39.7332 41.2169 40.2998C37.8212 42.0206 36.7623 45.5862 40.4304 47.7941C41.8032 48.5331 43.3059 49.209 44.9173 49.8323L44.9991 58.499C44.7834 58.6217 44.5649 58.7436 44.3453 58.8663C43.6945 59.2282 43.2341 59.4262 42.7271 59.9861C41.6306 61.2003 41.8086 62.5472 43.1143 63.3804C43.7131 63.6688 44.3583 63.8447 45.0504 63.9579L45.0755 66.6234C45.1659 67.7821 46.7038 67.8182 46.7641 66.6234L46.7781 64.1348C47.4167 64.1737 48.0881 64.1969 48.7928 64.2333L48.7917 64.234ZM45.0418 63.0665C44.8118 62.9936 44.5861 62.9165 44.3647 62.8373C43.2958 62.3538 43.2094 61.6218 43.7278 60.9949C44.0077 60.6571 44.5222 60.3814 45.0142 60.1445L45.0418 63.0665ZM44.8968 47.6168L44.7565 47.5611C43.8864 47.2149 42.5693 46.7061 41.8 46.1994C39.8086 44.8882 40.6306 43.0409 42.6453 42.0174C43.3959 41.6527 44.1229 41.303 44.834 40.9613L44.8968 47.6168ZM46.965 28.6407C48.8613 28.9035 50.735 29.2872 52.5703 29.8734C54.3607 30.4067 55.1641 31.8188 54.5868 33.1191C54.1357 34.1342 52.7472 34.9184 51.782 35.4629C50.3396 36.2762 48.6478 37.0257 46.9169 37.7643L46.965 28.6407ZM46.8491 50.5387C47.4691 50.7525 48.1028 50.9603 48.7486 51.1617C51.2628 52.125 51.6898 53.5486 49.8742 55.2004C49.0091 55.9881 47.8548 56.7576 46.8129 57.4128L46.8491 50.5387Z" fill="url(#paint0_linear_136_271)"/>
<ellipse cx="45.7774" cy="72.3137" rx="6.99514" ry="1.20186" fill="url(#paint1_linear_136_271)"/>
<defs>
<linearGradient id="paint0_linear_136_271" x1="44.2784" y1="17.0278" x2="44.2784" y2="67.506" gradientUnits="userSpaceOnUse">
<stop stop-color="#728BBD"/>
<stop offset="0.484375" stop-color="#5EDFA1"/>
<stop offset="1" stop-color="#57CACA"/>
</linearGradient>
<linearGradient id="paint1_linear_136_271" x1="45.7774" y1="71.1118" x2="45.7774" y2="73.5155" gradientUnits="userSpaceOnUse">
<stop stop-color="#EAE5E5"/>
<stop offset="1" stop-color="#D1D1D1"/>
</linearGradient>
</defs>
</svg>
