<svg width="136" height="23" viewBox="0 0 136 23" fill="none" xmlns="http://www.w3.org/2000/svg">
<g filter="url(#filter0_d_141_79)">
<path d="M11.5589 5.6207C11.8758 4.73802 13.1242 4.73802 13.4412 5.6207L14.6197 8.90233C14.7623 9.29946 15.1388 9.56434 15.5608 9.56434H19.1443C20.1371 9.56434 20.5232 10.8546 19.6936 11.4L16.9723 13.1888C16.5863 13.4425 16.4244 13.9277 16.5805 14.3624L17.6595 17.3669C17.9841 18.2709 16.9716 19.0681 16.169 18.5405L13.0493 16.4898C12.7159 16.2706 12.2841 16.2706 11.9507 16.4898L8.83099 18.5405C8.02836 19.0681 7.0159 18.2709 7.34054 17.3669L8.41951 14.3624C8.57564 13.9277 8.41367 13.4425 8.02766 13.1888L5.30638 11.4C4.4768 10.8546 4.86292 9.56434 5.85568 9.56434H9.4392C9.86117 9.56434 10.2377 9.29946 10.3803 8.90233L11.5589 5.6207Z" fill="#F8C202"/>
<path d="M39.0538 5.76646C39.3623 4.86462 40.6377 4.86462 40.9462 5.76646L42.0138 8.88795C42.1522 9.29251 42.5324 9.56434 42.96 9.56434H46.3013C47.2824 9.56434 47.6768 10.83 46.8694 11.3873L44.2559 13.1912C43.8873 13.4456 43.7328 13.914 43.8778 14.3378L44.8966 17.3166C45.2086 18.229 44.1759 19.011 43.3823 18.4632L40.568 16.5208C40.2261 16.2847 39.7739 16.2847 39.432 16.5208L36.6177 18.4632C35.8241 19.011 34.7914 18.229 35.1034 17.3166L36.1222 14.3378C36.2672 13.914 36.1127 13.4456 35.7441 13.1912L33.1306 11.3873C32.3232 10.83 32.7176 9.56434 33.6987 9.56434H37.04C37.4676 9.56434 37.8478 9.29251 37.9862 8.88795L39.0538 5.76646Z" fill="#F8C202"/>
<path d="M67.0538 5.76646C67.3623 4.86462 68.6377 4.86462 68.9462 5.76646L70.0138 8.88795C70.1522 9.29251 70.5324 9.56434 70.96 9.56434H74.3013C75.2824 9.56434 75.6768 10.83 74.8694 11.3873L72.2559 13.1912C71.8873 13.4456 71.7328 13.914 71.8778 14.3378L72.8966 17.3166C73.2086 18.229 72.1759 19.011 71.3823 18.4632L68.568 16.5208C68.2261 16.2847 67.7739 16.2847 67.432 16.5208L64.6177 18.4632C63.8241 19.011 62.7914 18.229 63.1034 17.3166L64.1222 14.3378C64.2672 13.914 64.1127 13.4456 63.7441 13.1912L61.1306 11.3873C60.3232 10.83 60.7176 9.56434 61.6987 9.56434H65.04C65.4676 9.56434 65.8478 9.29251 65.9862 8.88795L67.0538 5.76646Z" fill="#F8C202"/>
<path d="M95.0538 5.76646C95.3623 4.86462 96.6377 4.86462 96.9462 5.76646L98.0138 8.88795C98.1522 9.29251 98.5324 9.56434 98.96 9.56434H102.301C103.282 9.56434 103.677 10.83 102.869 11.3873L100.256 13.1912C99.8873 13.4456 99.7328 13.914 99.8778 14.3378L100.897 17.3166C101.209 18.229 100.176 19.011 99.3823 18.4632L96.568 16.5208C96.2261 16.2847 95.7739 16.2847 95.432 16.5208L92.6177 18.4632C91.8241 19.011 90.7914 18.229 91.1034 17.3166L92.1222 14.3378C92.2672 13.914 92.1127 13.4456 91.7441 13.1912L89.1306 11.3873C88.3232 10.83 88.7176 9.56434 89.6987 9.56434H93.04C93.4676 9.56434 93.8478 9.29251 93.9862 8.88795L95.0538 5.76646Z" fill="#F8C202"/>
<path d="M122.559 5.6207C122.876 4.73802 124.124 4.73802 124.441 5.6207L125.62 8.90233C125.762 9.29946 126.139 9.56434 126.561 9.56434H130.144C131.137 9.56434 131.523 10.8546 130.694 11.4L127.972 13.1888C127.586 13.4425 127.424 13.9277 127.58 14.3624L128.659 17.3669C128.984 18.2709 127.972 19.0681 127.169 18.5405L124.049 16.4898C123.716 16.2706 123.284 16.2706 122.951 16.4898L119.831 18.5405C119.028 19.0681 118.016 18.2709 118.341 17.3669L119.42 14.3624C119.576 13.9277 119.414 13.4425 119.028 13.1888L116.306 11.4C115.477 10.8546 115.863 9.56434 116.856 9.56434H120.439C120.861 9.56434 121.238 9.29946 121.38 8.90233L122.559 5.6207Z" fill="white"/>
</g>
<defs>
<filter id="filter0_d_141_79" x="0.854004" y="0.95874" width="134.292" height="21.7505" filterUnits="userSpaceOnUse" color-interpolation-filters="sRGB">
<feFlood flood-opacity="0" result="BackgroundImageFix"/>
<feColorMatrix in="SourceAlpha" type="matrix" values="0 0 0 0 0 0 0 0 0 0 0 0 0 0 0 0 0 0 127 0" result="hardAlpha"/>
<feOffset/>
<feGaussianBlur stdDeviation="2"/>
<feComposite in2="hardAlpha" operator="out"/>
<feColorMatrix type="matrix" values="0 0 0 0 0.983333 0 0 0 0 0.983333 0 0 0 0 0.983333 0 0 0 0.62 0"/>
<feBlend mode="normal" in2="BackgroundImageFix" result="effect1_dropShadow_141_79"/>
<feBlend mode="normal" in="SourceGraphic" in2="effect1_dropShadow_141_79" result="shape"/>
</filter>
</defs>
</svg>
